PathFileType	4	(X/Y/Z)	C:\Users\Basilio\Documents\Thesis Gigler\squatting_fais\c3dfiles\054\SJ_pre1\markers_experimental.trc
DataRate	CameraRate	NumFrames	NumMarkers	Units	OrigDataRate	OrigDataStartFrame	OrigNumFrames
200.000000	200.000000	4	61	mm	200.000000	246	1968
Frame#	Time	FHD			LBHD			RBHD			C7			T10			CLAV			LSHO			LUUPA			LMUPA			LDUPA			LLEP			LMEP			LRAD			LUL			LRFIN			RSHO			RUPA1			RMUPA			RDUPA			RLEP			RMEP			RRAD			RUL			RUFIN			LASI			RASI			USACR			LSACR			RSACR			LTHI1			LTHI2			LTHI3			LTHI4			LLFC			LMFC			LTIB1			LTIB2			LTIB3			LTIB4			LLMAL			LMMAL			LHEE			LMT1			LMT2			LMT5			RTHI			RTHI2			RTHI3			RTHI4			RLFC			RMFC			RTIB1			RTIB2			RTIB3			RTIB4			RLMAL			RMMAL			RHEE			RMT1			RMT2			RMT5			
		X1	Y1	Z1	X2	Y2	Z2	X3	Y3	Z3	X4	Y4	Z4	X5	Y5	Z5	X6	Y6	Z6	X7	Y7	Z7	X8	Y8	Z8	X9	Y9	Z9	X10	Y10	Z10	X11	Y11	Z11	X12	Y12	Z12	X13	Y13	Z13	X14	Y14	Z14	X15	Y15	Z15	X16	Y16	Z16	X17	Y17	Z17	X18	Y18	Z18	X19	Y19	Z19	X20	Y20	Z20	X21	Y21	Z21	X22	Y22	Z22	X23	Y23	Z23	X24	Y24	Z24	X25	Y25	Z25	X26	Y26	Z26	X27	Y27	Z27	X28	Y28	Z28	X29	Y29	Z29	X30	Y30	Z30	X31	Y31	Z31	X32	Y32	Z32	X33	Y33	Z33	X34	Y34	Z34	X35	Y35	Z35	X36	Y36	Z36	X37	Y37	Z37	X38	Y38	Z38	X39	Y39	Z39	X40	Y40	Z40	X41	Y41	Z41	X42	Y42	Z42	X43	Y43	Z43	X44	Y44	Z44	X45	Y45	Z45	X46	Y46	Z46	X47	Y47	Z47	X48	Y48	Z48	X49	Y49	Z49	X50	Y50	Z50	X51	Y51	Z51	X52	Y52	Z52	X53	Y53	Z53	X54	Y54	Z54	X55	Y55	Z55	X56	Y56	Z56	X57	Y57	Z57	X58	Y58	Z58	X59	Y59	Z59	X60	Y60	Z60	X61	Y61	Z61	

247	1.23	-193.8413391113282	1766.53857421875	-884.2920532226565	-338.5951538085938	1680.471435546875	-959.1716918945315	-357.9167480468751	1673.045776367188	-820.6565551757815	-372.1506347656251	1535.685546875	-879.6609497070315	-417.7616577148439	1196.197265625	-895.2374267578127	-234.8902435302735	1462.23779296875	-885.5772705078127	-299.2536315917969	1530.310913085938	-1041.295166015625	-410.804901123047	1418.460327148438	-1212.181274414063	-374.1815795898438	1383.972412109375	-1225.546020507813	-422.864471435547	1367.6923828125	-1259.0732421875	-418.5425720214845	1304.196044921875	-1284.332153320313	-489.4764709472657	1284.957153320313	-1233.060302734375	-364.4367370605469	1100.178833007813	-1124.30615234375	-337.5035400390626	1056.751098632813	-1181.558471679688	-303.1112670898438	1104.769165039063	-1097.36328125	-280.7205200195313	1520.818603515625	-721.0010375976564	-383.2330627441407	1391.982788085938	-545.6891479492189	-359.4458007812501	1349.685668945313	-540.5294799804689	-409.6692504882814	1337.973754882813	-508.532684326172	-419.7171936035157	1288.225341796875	-492.3430175781251	-487.2927856445314	1282.890380859375	-547.9176025390626	-385.1886596679689	1089.096435546875	-682.7367553710939	-345.2713928222657	1055.521484375	-621.4771118164064	-319.5519409179688	1105.618530273438	-702.9595336914064	-219.4643554687501	1024.9921875	-1023.148803710938	-218.0772552490235	1027.764892578125	-766.1797485351564	-412.3258666992189	1104.371215820313	-893.5474243164065	-415.1927490234376	1072.0458984375	-921.1046142578127	-414.1843872070314	1071.116333007813	-865.1809082031252	-342.5467529296876	804.3673095703127	-1119.0234375	-319.0770874023438	722.6184082031251	-1125.983520507813	-271.7825622558594	722.5495605468751	-1125.0849609375	-352.1422424316407	672.2234497070314	-1111.546508789063	-362.5835876464844	515.9672241210939	-1103.306274414063	-310.7487182617188	491.7582092285157	-978.9519042968752	-321.1078796386719	347.0257873535157	-1089.53271484375	-385.0870666503907	311.6936645507813	-1143.101684570313	-340.3845214843751	304.5158691406251	-1125.470703125	-341.6215820312501	222.4239349365235	-1102.91064453125	-406.6040039062501	87.95062255859376	-1153.790161132813	-364.5350036621094	102.1162643432617	-1066.177612304688	-465.7356262207032	50.41491699218751	-1096.369995117188	-243.9720458984376	55.26790237426759	-1102.68896484375	-242.8135681152344	59.43895721435548	-1152.901611328125	-295.7515258789063	36.37249374389649	-1200.86279296875	-344.1142272949219	734.9185791015626	-691.7270507812501	-314.0620117187501	676.6272583007814	-690.3889770507814	-281.4696350097657	674.0466918945314	-692.9227294921876	-350.1959838867188	603.0946044921876	-711.1544189453126	-369.3735046386719	509.1719665527345	-715.4356079101564	-303.1561279296876	503.3592224121095	-835.1220703125002	-324.3463134765626	397.3134155273439	-707.6282348632814	-403.2341918945314	331.0219726562501	-680.4692382812501	-357.9424133300782	320.4727478027344	-683.3951416015626	-342.6254577636719	267.8884887695313	-702.4035034179689	-408.4219665527345	93.14219665527345	-678.9397583007814	-362.2143859863282	103.8265609741211	-761.5619506835939	-461.8511657714845	49.13240432739259	-739.3250122070314	-234.5897674560547	53.87275695800783	-723.7233276367189	-240.6273956298829	56.39223861694337	-676.6330566406251	-292.4785766601563	35.44380569458009	-632.2866821289064	
248	1.235	-194.489730834961	1766.567993164063	-884.7456054687502	-338.9790344238282	1680.560302734375	-959.7988891601565	-358.2338562011719	1673.16357421875	-821.0826416015627	-372.5883789062501	1535.615478515625	-880.2547607421877	-417.763885498047	1196.169555664063	-895.538757324219	-235.2771759033204	1462.454345703125	-885.9858398437502	-299.6151428222657	1530.28564453125	-1041.791625976563	-410.8829040527345	1418.133666992188	-1212.638793945313	-374.1025695800782	1383.708618164063	-1225.990966796875	-423.1749572753907	1367.504150390625	-1259.497314453125	-418.5232543945314	1303.849243164063	-1284.73876953125	-489.3510742187501	1284.449462890625	-1233.5751953125	-364.2270507812501	1099.91357421875	-1124.710693359375	-337.1543884277344	1056.6025390625	-1181.767456054688	-302.7981872558594	1104.590209960938	-1097.646240234375	-281.3080444335938	1521.083984375	-721.2390747070314	-383.7028503417969	1392.118774414063	-546.0878906250001	-359.8041076660157	1349.80078125	-540.9926757812501	-410.0166320800782	1338.108764648438	-508.973602294922	-420.1344604492189	1288.325073242188	-492.7933654785157	-487.6561889648439	1282.8818359375	-548.4238891601564	-385.074432373047	1089.222412109375	-683.1382446289064	-345.2665405273438	1055.684326171875	-621.7387695312501	-319.5512084960938	1105.782592773438	-703.3188476562501	-219.1975708007813	1025.023315429688	-1023.448303222656	-217.8408813476563	1028.152709960938	-766.4221191406251	-412.1470336914064	1104.396240234375	-893.9573974609377	-415.0336303710939	1072.01416015625	-921.4766845703127	-414.047576904297	1071.14892578125	-865.5070800781252	-342.5243225097657	804.4124755859377	-1119.07568359375	-319.0375976562501	722.6448364257814	-1126.126708984375	-271.5848083496094	722.5566406250001	-1125.423461914063	-352.0933837890626	672.2680664062501	-1111.552124023438	-362.6007080078126	516.0765991210939	-1103.345458984375	-310.6231384277344	491.7747802734376	-978.8140869140627	-321.0976867675782	347.1207885742188	-1089.602783203125	-384.9621887207032	311.8073120117188	-1143.05810546875	-340.4207458496094	304.6666564941407	-1125.510009765625	-341.6548156738282	222.4649047851563	-1103.02392578125	-406.5221557617189	87.96201324462892	-1153.742553710938	-364.4535827636719	102.1264190673828	-1066.195678710938	-465.6851806640626	50.48411178588869	-1096.323852539063	-243.9043426513672	55.29610824584962	-1102.741333007813	-242.2250518798829	59.25943756103517	-1152.766845703125	-295.7422180175782	36.29264068603516	-1200.928466796875	-343.9410705566407	735.1743774414064	-692.0292968750001	-313.7692565917969	676.8553466796876	-690.7777099609376	-281.3594360351563	674.3131103515626	-692.9373168945314	-349.8468933105469	603.1986694335939	-711.3967285156251	-369.2091064453126	509.2994689941407	-715.7219238281251	-303.0459289550782	503.4978942871095	-835.233337402344	-324.0911560058594	397.4999389648439	-707.8226318359376	-403.1399841308595	331.2726440429688	-680.8186035156251	-357.6295166015626	320.6289978027344	-683.5374145507814	-342.5189819335938	268.0639953613282	-702.3820190429689	-408.2770080566407	93.39169311523439	-679.1660766601564	-362.0056457519532	103.9352951049805	-761.6179809570314	-461.806610107422	49.2812957763672	-739.4300537109376	-234.5586090087891	53.87300491333009	-723.7091674804689	-240.5668487548829	56.36745452880861	-676.5687866210939	-292.4747924804688	35.45803833007813	-632.3146362304689	
249	1.24	-194.8481140136719	1766.644165039063	-885.2700805664065	-339.5043334960938	1680.66650390625	-960.3673095703127	-358.7027282714844	1673.204223632813	-821.7102661132815	-373.0556640625001	1535.664184570313	-880.6835937500002	-417.783905029297	1196.099853515625	-895.8601684570315	-235.8424377441407	1462.521850585938	-886.3607177734377	-299.9065246582032	1530.270751953125	-1042.290893554688	-410.8662109375001	1417.843017578125	-1213.193603515625	-374.0644226074219	1383.441650390625	-1226.394653320313	-423.1422424316407	1367.1357421875	-1259.816162109375	-418.2769165039064	1303.439208984375	-1285.141479492188	-489.1842041015626	1284.056274414063	-1233.948974609375	-364.0462036132813	1099.660400390625	-1125.02685546875	-336.8104553222657	1056.421997070313	-1182.111938476563	-302.6133728027344	1104.392456054688	-1097.975830078125	-282.0332641601563	1521.184936523438	-721.5571899414064	-384.2937316894532	1392.33935546875	-546.5518798828126	-360.2006835937501	1349.947631835938	-541.5212402343751	-410.4808349609376	1338.206909179688	-509.5086975097657	-420.4826965332032	1288.509033203125	-493.1645507812501	-488.0350646972657	1282.942749023438	-548.7741699218751	-385.2302856445314	1089.325073242188	-683.3275756835939	-345.2763671875001	1055.8720703125	-622.0076904296876	-319.5655822753907	1105.95361328125	-703.5520019531251	-218.8801879882813	1025.102783203125	-1023.708984375	-217.6670227050782	1028.402221679688	-766.5795898437501	-412.1489257812501	1104.424438476563	-894.2607421875002	-416.0632324218751	1072.163940429688	-921.6942138671877	-413.8721313476564	1071.1845703125	-865.8188476562502	-342.4071044921876	804.4673461914065	-1119.140991210938	-319.0013732910157	722.6579589843751	-1126.13037109375	-271.4892578125001	722.5828247070314	-1125.589111328125	-351.9492492675782	672.2890014648439	-1111.548461914063	-362.6226196289063	516.1409301757814	-1103.361083984375	-310.3227539062501	491.845184326172	-978.8706054687502	-321.0197448730469	347.1621704101563	-1089.712036132813	-384.8147583007814	311.8702697753907	-1143.059936523438	-340.5115661621094	304.7793273925782	-1125.599975585938	-341.4473876953126	222.5950012207032	-1103.138916015625	-406.4406738281251	87.96783447265626	-1153.740844726563	-364.3219604492188	102.1362609863282	-1066.252685546875	-465.605926513672	50.57928848266603	-1096.268676757813	-243.8847808837891	55.28145980834962	-1102.77294921875	-242.1337127685547	59.06996154785158	-1152.837890625	-295.7330017089844	36.23600387573243	-1200.995483398438	-343.7393188476563	735.3424682617189	-692.2019042968751	-313.6688232421876	676.9425048828126	-690.9895019531251	-281.1225280761719	674.4999389648439	-693.0299072265626	-349.6841430664063	603.3351440429689	-711.5468750000001	-368.9696044921876	509.4573974609376	-715.9082641601564	-302.2169799804688	503.6798095703126	-835.306579589844	-323.8992004394532	397.6401672363282	-707.8836059570314	-402.962615966797	331.4297485351563	-681.1256713867189	-357.4310302734376	320.8475646972657	-683.6870117187501	-342.3304443359376	268.2835998535157	-702.4102172851564	-408.1942138671876	93.58015441894533	-679.3736572265626	-361.7565002441407	104.0091857910157	-761.7244262695314	-461.7080993652345	49.40088653564455	-739.6228637695314	-234.5379333496094	53.83232879638673	-723.6809082031251	-240.5632476806641	56.35239791870119	-676.5687866210939	-292.4889526367188	35.45157623291016	-632.3734130859376	
250	1.245	-195.4396667480469	1766.818237304688	-885.8316650390627	-339.8566284179688	1680.754150390625	-960.9184570312502	-359.2733154296876	1673.28173828125	-822.4449462890627	-373.5397644042969	1535.5634765625	-881.1611328125002	-417.8401794433595	1196.0810546875	-896.2012939453127	-236.1428985595704	1462.634765625	-886.7462158203127	-299.7287597656251	1530.130249023438	-1042.650512695313	-410.8398437500001	1417.574951171875	-1213.672607421875	-373.7792968750001	1383.112182617188	-1226.850219726563	-422.8956604003907	1366.906372070313	-1260.193115234375	-417.965301513672	1303.062377929688	-1285.60400390625	-489.0683593750001	1283.691772460938	-1234.300170898438	-363.8512878417969	1099.406860351563	-1125.328491210938	-336.3897094726563	1056.2373046875	-1182.530029296875	-302.4873657226563	1104.217895507813	-1098.270385742188	-282.6283264160157	1521.447021484375	-722.1828002929689	-384.7682189941407	1392.564453125	-547.0789184570314	-360.5403137207032	1350.107543945313	-542.0656127929689	-411.0728759765626	1338.375854492188	-509.9390869140626	-420.8155822753907	1288.67138671875	-493.548065185547	-488.4537048339845	1283.149536132813	-549.1947021484376	-385.1947021484376	1089.471435546875	-683.6391601562501	-345.2384033203126	1056.14697265625	-622.2852172851564	-319.5906066894532	1106.10205078125	-703.8033447265626	-218.6799926757813	1025.13232421875	-1024.056884765625	-217.4470520019532	1028.606323242188	-766.8356323242189	-412.2442626953126	1104.491821289063	-894.4842529296877	-414.8182678222657	1072.01953125	-922.0918579101565	-413.7422790527345	1071.216186523438	-866.122985839844	-342.3470153808594	804.513366699219	-1119.200317382813	-318.9268493652344	722.6588134765626	-1126.269165039063	-271.4173278808594	722.6511230468751	-1125.777221679688	-351.8811645507813	672.3482666015626	-1111.585327148438	-362.6470336914063	516.2150268554689	-1103.382446289063	-310.1123046875001	491.8881835937501	-978.9315185546877	-320.9577636718751	347.2110900878907	-1089.827514648438	-384.6503906250001	311.9607238769532	-1143.124267578125	-340.4944152832032	304.8335266113282	-1125.66845703125	-341.4531860351563	222.7572631835938	-1103.232666015625	-406.4454040527345	88.02799224853517	-1153.710693359375	-364.2618713378907	102.1498107910157	-1066.240112304688	-465.5465393066407	50.63584518432619	-1096.213012695313	-243.8397369384766	55.2878761291504	-1102.845336914063	-242.4244537353516	59.04102325439455	-1153.055419921875	-295.7196655273438	36.17826461791993	-1201.044677734375	-343.5384521484376	735.5375366210939	-692.6027832031251	-313.5146789550782	676.9976806640626	-690.9394531250001	-280.9988403320313	674.6903686523439	-693.0289306640626	-349.0899047851563	603.4837036132814	-711.7910156250001	-368.4941711425782	509.661102294922	-716.1018676757814	-301.4685668945313	503.8614501953126	-835.2827148437502	-323.5048217773438	397.7558898925782	-707.9346923828126	-402.6450195312501	331.5452270507813	-681.3502807617189	-357.1849365234376	321.0223388671876	-683.8203735351564	-342.0107727050782	268.4571838378907	-702.5079956054689	-408.0274353027345	93.74869537353517	-679.6555175781251	-361.5136413574219	104.1581726074219	-761.7994384765626	-461.6846008300782	49.67047119140626	-739.8208618164064	-234.5057067871094	53.84189224243165	-723.6460571289064	-240.5013580322266	56.3596649169922	-676.5038452148439	-292.4256896972657	35.47561645507813	-632.4107666015626	
